<svg preserveAspectRatio="xMidYMid meet" viewBox="56.300000000000004 56.330749354005164 434.636 98.57881136950904" xmlns="http://www.w3.org/2000/svg" version="1.0" style="max-height: 500px" width="434.636" height="98.57881136950904">

<g stroke="none" fill="#000000" transform="translate(0.000000,218.000000) scale(0.100000,-0.100000)">
<path d="M660 1241 l0 -251 63 0 c70 0 154 -20 188 -44 22 -15 14 -16 -134&#10;-16 l-157 0 0 230 c0 198 -2 230 -15 230 -13 0 -15 -34 -15 -250 l0 -250 159&#10;0 c129 0 161 -3 171 -15 7 -8 23 -15 35 -15 12 0 28 7 35 15 10 12 42 15 171&#10;15 l159 0 0 250 c0 216 -2 250 -15 250 -13 0 -15 -32 -15 -230 l0 -230 -152 0&#10;c-137 0 -151 2 -137 15 23 23 115 45 192 45 l67 0 0 251 0 252 -108 -5 c-91&#10;-4 -115 -8 -153 -29 l-44 -25 -44 25 c-37 20 -62 25 -148 29 l-103 5 0 -252z&#10;m230 207 l45 -23 3 -238 2 -238 -23 16 c-29 19 -146 45 -204 45 l-43 0 0 230&#10;0 230 88 0 c71 0 96 -4 132 -22z m350 -208 l0 -230 -38 0 c-59 0 -152 -20&#10;-194 -41 l-38 -19 0 234 c0 195 2 236 15 246 30 25 92 39 173 40 l82 0 0 -230z"/>
<path d="M1555 1421 c-3 -6 -3 -17 1 -23 17 -28 229 -303 238 -310 16 -11 29&#10;1 91 83 l60 79 5 -162 5 -163 45 0 45 0 0 250 0 250 -46 3 -46 3 -75 -100 -74&#10;-100 -75 97 c-74 96 -75 97 -121 100 -25 2 -49 -2 -53 -7z"/>
<path d="M2232 1383 l3 -48 179 -3 c200 -3 209 0 204 57 l-3 36 -193 3 -193 2&#10;3 -47z"/>
<path d="M2714 1404 c-4 -14 -2 -36 5 -50 9 -20 18 -24 54 -24 48 0 67 13 67&#10;46 0 46 -9 54 -66 54 -49 0 -54 -2 -60 -26z"/>
<path d="M2887 1423 c-4 -3 -7 -118 -7 -254 l0 -249 25 -6 c14 -3 36 -3 50 0&#10;l25 6 0 205 0 204 78 3 77 3 3 48 3 47 -124 0 c-68 0 -127 -3 -130 -7z"/>
<path d="M3277 1424 c-4 -4 -7 -24 -7 -45 0 -50 3 -50 215 -47 l170 3 0 45 0&#10;45 -186 3 c-102 1 -188 -1 -192 -4z"/>
<path d="M3930 1414 c-115 -50 -177 -196 -138 -326 32 -106 205 -217 224 -144&#10;10 40 1 60 -34 78 -69 34 -102 84 -102 153 0 69 33 119 102 153 29 15 33 22&#10;33 57 0 35 -3 40 -25 42 -14 2 -41 -4 -60 -13z"/>
<path d="M4067 1423 c-4 -3 -7 -23 -7 -43 0 -34 4 -39 47 -62 60 -31 84 -71&#10;85 -142 1 -71 -24 -113 -85 -144 -44 -23 -47 -27 -47 -64 0 -46 16 -55 69 -40&#10;52 16 115 73 142 129 47 98 20 245 -59 314 -53 47 -125 73 -145 52z"/>
<path d="M4447 1423 c-12 -11 -8 -68 5 -81 8 -8 55 -12 144 -12 131 0 133 0&#10;153 -26 27 -34 26 -50 -4 -79 -23 -24 -29 -25 -153 -25 -98 0 -132 -3 -141&#10;-14 -8 -9 -11 -55 -9 -137 l3 -124 45 0 45 0 3 88 3 87 63 0 63 0 54 -87 55&#10;-88 47 -3 c34 -2 49 1 53 12 3 8 -18 50 -50 97 l-55 83 33 23 c70 47 85 167&#10;29 233 -42 51 -79 60 -238 60 -78 0 -145 -3 -148 -7z"/>
<path d="M2237 1223 c-4 -3 -7 -26 -7 -50 l0 -43 178 2 177 3 3 33 c6 59 -3&#10;62 -183 62 -89 0 -165 -3 -168 -7z"/>
<path d="M3282 1221 c-8 -5 -12 -23 -10 -47 l3 -39 175 0 175 0 0 45 0 45&#10;-165 2 c-91 2 -171 -1 -178 -6z"/>
<path d="M1561 1086 c-8 -9 -11 -41 -9 -88 l3 -73 45 0 45 0 0 85 0 85 -36 3&#10;c-22 2 -40 -2 -48 -12z"/>
<path d="M2234 1006 c-3 -8 -4 -29 -2 -48 l3 -33 190 0 190 0 3 24 c2 12 1 34&#10;-2 47 l-6 24 -186 0 c-149 0 -186 -3 -190 -14z"/>
<path d="M3274 1006 c-3 -8 -4 -29 -2 -48 l3 -33 190 0 190 0 0 45 0 45 -188&#10;3 c-155 2 -188 0 -193 -12z"/>
<path d="M590 690 l0 -30 2145 0 2145 0 0 25 0 25 -1762 1 c-970 0 -1935 2&#10;-2145 5 l-383 4 0 -30z"/>
</g>
</svg>